<svg width="32" height="32" viewBox="0 0 32 32" fill="none" xmlns="http://www.w3.org/2000/svg">
<path d="M16 4C16 4 10 8 10 14C10 18 12 22 16 26C20 22 22 18 22 14C22 8 16 4 16 4Z" fill="#32F08C"/>
<path d="M8 14C8 14 6 16 6 20C6 24 8 28 12 30" stroke="#32F08C" stroke-width="2" stroke-linecap="round"/>
<path d="M24 14C24 14 26 16 26 20C26 24 24 28 20 30" stroke="#32F08C" stroke-width="2" stroke-linecap="round"/>
<path d="M12 16C12 16 13 15 14 15C15 15 16 16 16 16" fill="#32F08C"/>
<path d="M18 16C18 16 19 15 20 15C21 15 20 16 20 16" fill="#32F08C"/>
<path d="M13 19C13 19 14 18 15 18C16 18 15 19 15 19" fill="#32F08C"/>
<path d="M17 19C17 19 18 18 19 18C20 18 19 19 19 19" fill="#32F08C"/>
</svg>